<?xml version="1.0" standalone="no"?>
<!DOCTYPE svg PUBLIC "-//W3C//DTD SVG 20010904//EN"
 "http://www.w3.org/TR/2001/REC-SVG-20010904/DTD/svg10.dtd">
<svg version="1.0" xmlns="http://www.w3.org/2000/svg"
 width="300.000000pt" height="300.000000pt" viewBox="0 0 300.000000 300.000000"
 preserveAspectRatio="xMidYMid meet">
<metadata>
Created by potrace 1.10, written by Peter Selinger 2001-2011
</metadata>
<g transform="translate(0.000000,300.000000) scale(0.100000,-0.100000)"
fill="#000000" stroke="none">
<path d="M760 1770 l0 -620 650 0 650 0 0 620 0 620 -650 0 -650 0 0 -620z
m1234 574 c14 -6 16 -65 16 -574 0 -509 -2 -568 -16 -574 -20 -8 -1148 -8
-1168 0 -14 6 -16 65 -16 574 0 445 3 569 13 573 18 8 1152 8 1171 1z"/>
<path d="M876 2269 l-27 -31 3 -473 3 -473 24 -26 24 -26 507 0 507 0 22 24
23 24 0 482 0 482 -23 24 -22 24 -508 0 -507 0 -26 -31z m1049 -499 l0 -490
-517 0 -518 0 0 490 0 490 518 0 517 0 0 -490z"/>
</g>
</svg>
